<?xml version="1.0" encoding="utf-8"?>
<!-- Generator: Adobe Illustrator 19.1.0, SVG Export Plug-In . SVG Version: 6.00 Build 0)  -->
<svg version="1.1" id="Calque_1" xmlns="http://www.w3.org/2000/svg" xmlns:xlink="http://www.w3.org/1999/xlink" x="0px" y="0px"
	 viewBox="0 0 566.9 566.9" style="enable-background:new 0 0 566.9 566.9;" xml:space="preserve">
<g>
	<path d="M43.9,284.9c0.6,3.7,2.8,5.9,6.1,7.7c32.5,17.5,65,35.2,97.5,52.8c20.1,10.9,40.2,21.7,60.4,32.6c0.5,0.3,0.9,0.6,1.4,0.7
		c1.7,0.3,4.3,1.4,5,0.6c1.1-1.1,1.6-3.6,1.3-5.3c-2.6-14.2-5.4-28.4-8.2-42.6c-1.2-6.3-2.5-12.5-3.6-18.8
		c-1.1-6.5,1.6-10.1,8.1-11.2c28.7-5,57.5-6.2,86.5-4.1c38,2.8,74.6,11.5,109.8,25.7c27.7,11.1,54.1,25.1,78,43
		c15,11.2,28.9,23.7,43.3,35.7c1,0.8,2,1.6,3.8,1.8c-2.1-3.3-4.1-6.6-6.2-9.8c-19.1-28.5-41.5-54.1-67.2-76.9
		c-21-18.6-43.5-34.9-67.8-48.9c-33.5-19.2-68.9-33.8-106.5-43.2c-32.1-8.1-64.6-12.5-97.7-13.3c-2.9-0.1-3.8-1.3-4.3-3.8
		c-4-21.1-8.1-42.2-12.2-63.4c-0.1-0.4,0-0.8-0.2-1.2c-1-1.8-2-3.6-2.9-5.3c-1.8,1-4,1.7-5.2,3.2c-15.7,18.7-31.3,37.5-47,56.3
		c-16.9,20.2-33.7,40.3-50.6,60.5c-5.8,6.9-11.6,13.9-17.4,20.8c-0.8,1-1.9,1.9-2.8,2.8C44.8,282.4,44.3,283.6,43.9,284.9z"/>
</g>
</svg>
