<?xml version="1.0" encoding="utf-8"?>
<!-- Generator: Adobe Illustrator 19.1.0, SVG Export Plug-In . SVG Version: 6.00 Build 0)  -->
<svg version="1.1" id="Calque_1" xmlns="http://www.w3.org/2000/svg" xmlns:xlink="http://www.w3.org/1999/xlink" x="0px" y="0px"
	 viewBox="0 0 566.9 566.9" style="enable-background:new 0 0 566.9 566.9;" xml:space="preserve">
<g>
	<path d="M533.4,284.9c-0.6,3.7-2.8,5.9-6.1,7.7c-32.5,17.5-65,35.2-97.5,52.8c-20.1,10.9-40.2,21.7-60.4,32.6
		c-0.5,0.3-0.9,0.6-1.4,0.7c-1.7,0.3-4.3,1.4-5,0.6c-1.1-1.1-1.6-3.6-1.3-5.3c2.6-14.2,5.4-28.4,8.2-42.6c1.2-6.3,2.5-12.5,3.6-18.8
		c1.1-6.5-1.6-10.1-8.1-11.2c-28.7-5-57.5-6.2-86.5-4.1c-38,2.8-74.6,11.5-109.8,25.7c-27.7,11.1-54.1,25.1-78,43
		c-15,11.2-28.9,23.7-43.3,35.7c-1,0.8-2,1.6-3.8,1.8c2.1-3.3,4.1-6.6,6.2-9.8c19.1-28.5,41.5-54.1,67.2-76.9
		c21-18.6,43.5-34.9,67.8-48.9c33.5-19.2,68.9-33.8,106.5-43.2c32.1-8.1,64.6-12.5,97.7-13.3c2.9-0.1,3.8-1.3,4.3-3.8
		c4-21.1,8.1-42.2,12.2-63.4c0.1-0.4,0-0.8,0.2-1.2c1-1.8,2-3.6,2.9-5.3c1.8,1,4,1.7,5.2,3.2c15.7,18.7,31.3,37.5,47,56.3
		c16.9,20.2,33.7,40.3,50.6,60.5c5.8,6.9,11.6,13.9,17.4,20.8c0.8,1,1.9,1.9,2.8,2.8C532.4,282.4,532.9,283.6,533.4,284.9z"/>
</g>
</svg>
